<svg width="34" height="34" viewBox="0 0 34 34" fill="none" xmlns="http://www.w3.org/2000/svg">
<rect width="34" height="34" rx="8" fill="#19BFBF"/>
<path fill-rule="evenodd" clip-rule="evenodd" d="M16.9048 25.6C21.8227 25.6 25.8095 21.6601 25.8095 16.8C25.8095 11.9399 21.8227 8 16.9048 8C11.9868 8 8 11.9399 8 16.8C8 21.6601 11.9868 25.6 16.9048 25.6ZM24.146 17.6C23.8454 20.287 22.0487 22.5284 19.5972 23.4924C20.3866 21.9035 20.8478 19.8336 20.9366 17.6H24.146ZM19.3159 17.6C19.1977 20.2989 18.4846 22.6841 17.3729 23.9854C17.2181 23.9951 17.062 24 16.9048 24C16.7475 24 16.5914 23.9951 16.4366 23.9854C15.3249 22.6841 14.6118 20.2989 14.4936 17.6H19.3159ZM12.873 17.6C12.9618 19.8336 13.4229 21.9035 14.2123 23.4924C11.7609 22.5284 9.96407 20.287 9.66351 17.6H12.873ZM14.4936 16H19.3159C19.1977 13.3011 18.4846 10.9159 17.3729 9.61463C17.2181 9.60493 17.062 9.60001 16.9048 9.60001C16.7475 9.60001 16.5914 9.60493 16.4367 9.61463C15.3249 10.9159 14.6118 13.3011 14.4936 16ZM14.2123 10.1076C13.4229 11.6965 12.9618 13.7664 12.873 16H9.66351C9.96409 13.313 11.7609 11.0716 14.2123 10.1076ZM24.146 16H20.9366C20.8478 13.7664 20.3866 11.6965 19.5972 10.1076C22.0486 11.0717 23.8454 13.313 24.146 16Z" fill="white"/>
</svg>
